<svg width="411" height="616" viewBox="0 0 411 616" fill="none" xmlns="http://www.w3.org/2000/svg">
<path d="M244.409 395.245C244.409 449.726 239.458 498.973 231.489 534.532C227.5 552.332 222.784 566.566 217.633 576.289C215.056 581.153 212.432 584.767 209.837 587.136C207.256 589.493 204.843 590.5 202.591 590.5C200.339 590.5 197.926 589.493 195.345 587.136C192.75 584.767 190.127 581.153 187.549 576.289C182.398 566.566 177.682 552.332 173.693 534.532C165.724 498.973 160.773 449.726 160.773 395.245C160.773 368.003 162.011 347.408 164.231 331.842C166.453 316.252 169.641 305.856 173.446 298.913C177.206 292.051 181.554 288.58 186.252 286.741C191.072 284.853 196.475 284.591 202.591 284.591C208.707 284.591 214.11 284.853 218.93 286.741C223.628 288.58 227.976 292.051 231.736 298.913C235.541 305.856 238.729 316.252 240.951 331.842C243.171 347.408 244.409 368.003 244.409 395.245Z" stroke="#24744D" stroke-width="5"/>
<path d="M266.094 46.5C266.825 46.5 267.735 46.8394 268.835 48.0267C269.955 49.2355 271.1 51.1549 272.188 53.8443C274.36 59.2095 276.077 67.0508 277.168 76.6682C279.345 95.8594 278.968 121.55 275.185 147.273C271.398 173.02 264.232 198.573 252.976 217.614C241.728 236.642 226.67 248.773 207.077 248.773C187.48 248.773 172.316 236.636 160.862 217.598C149.4 198.549 141.93 172.989 137.734 147.234C133.544 121.506 132.656 95.8014 134.228 76.5902C135.015 66.9637 136.41 59.1004 138.249 53.7142C139.173 51.0087 140.157 49.0873 141.115 47.8892C142.07 46.6955 142.755 46.5 143.142 46.5C144.866 46.5 146.523 47.4341 148.197 49.9414C149.896 52.4877 151.349 56.3035 152.607 61.1826C154.955 70.2891 156.434 82.2882 157.964 94.7034C158.071 95.5652 158.177 96.429 158.284 97.2941C159.917 110.488 161.68 123.957 164.723 134.132C166.242 139.213 168.143 143.695 170.66 146.95C173.226 150.268 176.581 152.474 180.848 152.474C185.167 152.474 188.351 150.21 190.556 146.77C192.686 143.447 194.003 138.912 194.863 133.833C196.586 123.649 196.628 110.168 196.661 96.9933L196.662 96.755C196.695 83.5149 196.727 70.5957 198.293 60.9595C199.083 56.0989 200.224 52.3512 201.768 49.877C203.239 47.5193 204.932 46.5 207.077 46.5C209.269 46.5 211.179 47.5704 212.958 50.0218C214.788 52.5436 216.308 56.3272 217.547 61.1769C220.018 70.8541 221.153 83.8769 222.007 97.1476C222.195 100.073 222.37 103.012 222.543 105.923C223.148 116.095 223.733 125.94 224.814 133.758C225.507 138.771 226.43 143.182 227.795 146.397C229.092 149.452 231.265 152.474 234.947 152.474C238.597 152.474 240.823 149.492 242.195 146.448C243.641 143.241 244.68 138.836 245.508 133.823C246.781 126.108 247.627 116.414 248.504 106.382C248.769 103.343 249.038 100.273 249.321 97.2181C250.553 83.9499 252.075 70.9284 254.869 61.252C256.269 56.405 257.93 52.6127 259.879 50.0777C261.781 47.6054 263.804 46.5 266.094 46.5Z" stroke="#24744D" stroke-width="5"/>
</svg>
