<svg width="411" height="616" viewBox="0 0 411 616" fill="none" xmlns="http://www.w3.org/2000/svg">
<path d="M272.206 395.245C272.206 449.686 265.803 498.88 255.507 534.382C250.353 552.15 244.265 566.347 237.616 576.046C230.911 585.824 224.021 590.5 217.353 590.5C210.685 590.5 203.795 585.824 197.09 576.046C190.441 566.347 184.353 552.15 179.199 534.382C168.903 498.88 162.5 449.686 162.5 395.245C162.5 368.022 164.101 347.464 166.966 331.942C169.832 316.406 173.938 306.067 178.838 299.157C188.423 285.641 201.521 284.591 217.353 284.591C233.185 284.591 246.283 285.641 255.868 299.157C260.768 306.067 264.874 316.406 267.74 331.942C270.605 347.464 272.206 368.022 272.206 395.245Z" stroke="#24744D" stroke-width="5"/>
<path d="M291.5 140C291.5 171.814 281.73 200.522 266.053 221.222C250.377 241.92 228.904 254.5 205.387 254.5C193.626 254.5 187.443 251.131 184.151 245.833C180.689 240.262 179.96 231.901 180.844 220.841C181.492 212.73 182.963 203.552 184.579 193.466C185.152 189.887 185.744 186.193 186.324 182.393C188.525 167.968 190.521 152.168 190.521 135.821C190.521 119.47 188.524 104.189 186.32 90.5344C185.671 86.5122 185.009 82.6504 184.373 78.9503C182.837 69.9998 181.463 61.996 180.842 54.9595C179.959 44.9514 180.706 37.7252 184.067 32.988C187.298 28.4332 193.482 25.5 205.387 25.5C228.904 25.5 250.377 38.0797 266.053 58.7779C281.73 79.4776 291.5 108.186 291.5 140Z" stroke="#24744D" stroke-width="5"/>
</svg>
