<svg width="785" height="503" viewBox="0 0 785 503" fill="none" xmlns="http://www.w3.org/2000/svg">
<path d="M381.199 126.303C383.616 130.956 384.465 135.766 383.974 139.732C383.482 143.709 381.692 146.629 379.031 148.012C376.37 149.395 372.952 149.18 369.415 147.296C365.887 145.418 362.44 141.958 360.022 137.305C357.605 132.652 356.756 127.842 357.247 123.876C357.739 119.899 359.529 116.978 362.19 115.596C364.851 114.213 368.269 114.428 371.806 116.312C375.334 118.19 378.781 121.65 381.199 126.303Z" stroke="#24744D" stroke-width="4"/>
<path d="M399.794 175.831C404.672 185.221 408.25 194.091 410.106 200.817C411.039 204.195 411.508 206.928 411.533 208.87C411.545 209.845 411.443 210.508 411.305 210.916C411.247 211.089 411.194 211.184 411.161 211.231C411.104 211.23 410.996 211.219 410.821 211.168C410.407 211.046 409.807 210.748 409.016 210.178C407.441 209.041 405.475 207.086 403.247 204.38C398.811 198.995 393.61 190.967 388.732 181.578C386.293 176.882 384.673 173.268 383.666 170.463C382.654 167.64 382.304 165.749 382.305 164.466C382.306 163.253 382.617 162.643 382.957 162.24C383.364 161.756 383.98 161.367 384.984 160.845C385.989 160.323 386.662 160.044 387.292 159.988C387.817 159.941 388.495 160.038 389.488 160.734C390.538 161.471 391.884 162.845 393.612 165.296C395.328 167.732 397.354 171.135 399.794 175.831ZM411.128 211.271C411.127 211.271 411.13 211.268 411.136 211.264C411.131 211.269 411.128 211.271 411.128 211.271ZM411.203 211.229C411.21 211.227 411.213 211.226 411.213 211.226C411.214 211.227 411.21 211.228 411.203 211.229Z" stroke="#24744D" stroke-width="4"/>
<path d="M446.032 166.175C446.032 176.757 445.118 186.278 443.665 193.102C442.935 196.53 442.091 199.171 441.218 200.906C440.78 201.777 440.384 202.318 440.073 202.617C439.941 202.744 439.85 202.803 439.8 202.83C439.749 202.803 439.659 202.744 439.527 202.617C439.216 202.318 438.82 201.777 438.382 200.906C437.508 199.171 436.665 196.53 435.935 193.102C434.482 186.278 433.567 176.757 433.567 166.175C433.567 160.884 433.796 156.93 434.196 153.977C434.599 151.005 435.16 149.166 435.753 148.027C436.313 146.952 436.87 146.554 437.357 146.353C437.942 146.112 438.668 146.05 439.8 146.05C440.932 146.05 441.658 146.112 442.242 146.353C442.73 146.554 443.287 146.952 443.847 148.027C444.44 149.166 445.001 151.005 445.404 153.977C445.804 156.93 446.032 160.884 446.032 166.175ZM439.752 202.85C439.752 202.849 439.755 202.848 439.762 202.847C439.755 202.849 439.752 202.85 439.752 202.85ZM439.838 202.847C439.845 202.848 439.848 202.849 439.848 202.85C439.848 202.85 439.845 202.849 439.838 202.847Z" stroke="#24744D" stroke-width="4"/>
<path d="M450.994 97.1544C451.119 96.6992 451.246 96.3358 451.367 96.0525C451.673 96.9323 451.944 98.246 452.126 99.9345C452.516 103.551 452.452 108.451 451.764 113.376C451.073 118.32 449.777 123.111 447.815 126.605C445.849 130.107 443.464 131.917 440.633 131.917C437.798 131.917 435.393 130.101 433.387 126.592C431.386 123.092 430.036 118.297 429.27 113.346C428.508 108.418 428.35 103.507 428.632 99.8752C428.719 98.7506 428.846 97.787 428.998 97.0043C429.006 97.0361 429.014 97.0683 429.022 97.1011C429.435 98.7879 429.7 101.046 429.989 103.516C430.007 103.67 430.026 103.826 430.044 103.982C430.344 106.532 430.682 109.292 431.286 111.418C431.587 112.474 431.999 113.552 432.624 114.403C433.282 115.298 434.317 116.109 435.761 116.109C437.252 116.109 438.281 115.246 438.881 114.259C439.43 113.359 439.712 112.243 439.881 111.189C440.221 109.071 440.228 106.326 440.234 103.805L440.234 103.753C440.24 101.105 440.248 98.6895 440.52 96.9304C440.582 96.5236 440.653 96.1972 440.725 95.9401C440.843 96.2283 440.966 96.6088 441.084 97.0967C441.508 98.8422 441.714 101.262 441.874 103.871C441.907 104.42 441.939 104.98 441.971 105.54C442.083 107.539 442.196 109.543 442.405 111.132C442.537 112.137 442.727 113.155 443.054 113.967C443.313 114.607 444.068 116.109 445.81 116.109C447.527 116.109 448.3 114.641 448.572 114.006C448.917 113.201 449.132 112.187 449.29 111.181C449.535 109.614 449.699 107.64 449.863 105.666C449.911 105.082 449.96 104.498 450.01 103.924C450.24 101.317 450.515 98.8989 450.994 97.1544ZM451.793 95.3336C451.795 95.3323 451.795 95.3317 451.795 95.3318C451.795 95.3318 451.795 95.3325 451.793 95.3336Z" stroke="#24744D" stroke-width="4"/>
<path d="M486.234 177.26C483.017 187.341 479.251 196.133 475.793 202.193C474.055 205.237 472.449 207.496 471.089 208.884C470.407 209.58 469.865 209.975 469.478 210.165C469.314 210.246 469.21 210.275 469.153 210.285C469.113 210.244 469.045 210.16 468.958 209.999C468.753 209.62 468.54 208.984 468.387 208.021C468.083 206.103 468.082 203.331 468.428 199.843C469.119 192.9 471.142 183.552 474.359 173.471C475.967 168.43 477.387 164.732 478.666 162.041C479.953 159.332 481.047 157.75 481.958 156.846C482.818 155.992 483.47 155.782 483.995 155.739C484.626 155.687 485.336 155.848 486.415 156.192C487.493 156.536 488.166 156.816 488.649 157.224C489.053 157.563 489.463 158.112 489.669 159.307C489.887 160.571 489.863 162.495 489.343 165.448C488.827 168.383 487.842 172.219 486.234 177.26ZM469.101 210.29C469.101 210.289 469.105 210.289 469.112 210.29C469.105 210.29 469.101 210.29 469.101 210.29ZM469.184 210.313C469.19 210.316 469.193 210.319 469.193 210.319C469.193 210.319 469.19 210.318 469.184 210.313Z" stroke="#24744D" stroke-width="4"/>
<path d="M507.027 128.763C505.439 133.742 502.578 137.708 499.332 140.127C496.083 142.548 492.599 143.331 489.554 142.36C488.05 141.88 487.84 141.343 487.771 141.036C487.638 140.45 487.785 139.428 488.496 137.67C489.001 136.421 489.676 135.056 490.449 133.493C490.732 132.921 491.028 132.323 491.333 131.694C492.446 129.404 493.628 126.817 494.523 124.013C495.418 121.206 495.926 118.496 496.306 116.104C496.423 115.363 496.527 114.668 496.624 114.013C496.851 112.493 497.044 111.195 497.304 110.065C497.687 108.395 498.096 107.72 498.416 107.466C498.565 107.348 499.038 107.042 500.659 107.559C503.704 108.531 506.09 111.187 507.336 115.043C508.581 118.894 508.616 123.784 507.027 128.763Z" stroke="#24744D" stroke-width="4"/>
<line x1="25" y1="423" x2="760" y2="423" stroke="#24744D" stroke-width="4"/>
<path d="M88.3276 423.733C88.3276 423.733 200.226 78.6623 251.302 78.286C302.379 77.9097 420.907 340.743 442.069 339.921C463.231 339.099 507.56 191.144 547.452 191.144C579.753 191.144 691.207 423.733 691.207 423.733" stroke="#24744D" stroke-width="4"/>
<path fill-rule="evenodd" clip-rule="evenodd" d="M491.168 252.015C478.206 237.509 459.347 228.376 438.351 228.376C417.356 228.376 398.497 237.509 385.535 252.015H380.28C393.991 235.151 414.912 224.376 438.351 224.376C461.791 224.376 482.711 235.151 496.423 252.015H491.168Z" fill="#24744D"/>
</svg>
