<svg width="980" height="868" viewBox="0 0 980 868" fill="none" xmlns="http://www.w3.org/2000/svg">
<path d="M178.9 692.716C183.914 690.164 189.14 687.393 194.473 684.414C226.887 666.311 265.467 639.337 282.559 605.519C293.324 584.219 298.161 555.009 300.426 532.081C301.577 520.434 302.095 510.053 302.325 502.579C302.441 498.838 302.485 495.816 302.499 493.716C302.507 492.666 302.507 491.845 302.505 491.28C302.504 490.998 302.503 490.779 302.502 490.627L302.5 490.45L302.5 490.4L302.499 490.385L302.499 490.379C302.499 490.377 302.499 490.376 292.5 490.5L302.499 490.376L302.376 480.5H292.5H139V174H446V490.495V490.5L446 490.53C446 490.566 445.999 490.629 445.998 490.717C445.997 490.893 445.993 491.17 445.985 491.545C445.969 492.294 445.937 493.43 445.872 494.912C445.742 497.876 445.478 502.218 444.948 507.612C443.884 518.416 441.757 533.354 437.512 549.855C428.954 583.116 412.154 621.349 379.575 645.746C363.486 657.794 340.098 667.123 313.228 674.177C286.523 681.188 257.185 685.75 229.801 688.702C211.385 690.687 193.941 691.934 178.9 692.716Z" stroke="black" stroke-width="20"/>
<path d="M575.763 692.715C580.765 690.161 585.979 687.389 591.299 684.408C623.618 666.302 662.083 639.326 679.123 605.508C689.853 584.211 694.674 555.005 696.933 532.078C698.08 520.432 698.596 510.051 698.826 502.578C698.941 498.838 698.985 495.816 698.999 493.716C699.007 492.665 699.007 491.845 699.005 491.28C699.004 490.998 699.003 490.779 699.002 490.627L699 490.45L699 490.4L698.999 490.385L698.999 490.38C698.999 490.378 698.999 490.376 689 490.5L698.999 490.376L698.877 480.5H689H536V174H842V490.495V490.5L842 490.53L842 490.547C842 490.584 841.999 490.641 841.998 490.717C841.997 490.893 841.993 491.171 841.985 491.546C841.969 492.295 841.938 493.431 841.872 494.913C841.742 497.878 841.48 502.22 840.951 507.615C839.891 518.42 837.769 533.36 833.537 549.862C825.004 583.129 808.253 621.361 775.779 645.755C759.744 657.799 736.434 667.126 709.65 674.179C683.03 681.189 653.785 685.75 626.487 688.702C608.135 690.686 590.753 691.933 575.763 692.715Z" stroke="black" stroke-width="20"/>
</svg>
