<svg width="411" height="616" viewBox="0 0 411 616" fill="none" xmlns="http://www.w3.org/2000/svg">
<path d="M277.5 144.636C277.5 172.787 269.239 198.169 256.008 216.453C242.774 234.739 224.708 245.773 205 245.773C185.292 245.773 167.226 234.739 153.992 216.453C140.761 198.169 132.5 172.787 132.5 144.636C132.5 116.486 140.761 91.1034 153.992 72.8201C167.226 54.5337 185.292 43.5 205 43.5C224.708 43.5 242.774 54.5337 256.008 72.8201C269.239 91.1034 277.5 116.486 277.5 144.636Z" stroke="#24744D" stroke-width="5"/>
<path d="M243.409 395.245C243.409 449.726 238.458 498.973 230.489 534.532C226.5 552.332 221.784 566.566 216.632 576.289C214.055 581.153 211.432 584.767 208.837 587.136C206.256 589.493 203.843 590.5 201.591 590.5C199.339 590.5 196.926 589.493 194.345 587.136C191.75 584.767 189.126 581.153 186.549 576.289C181.398 566.566 176.682 552.332 172.693 534.532C164.724 498.973 159.773 449.726 159.773 395.245C159.773 368.003 161.011 347.408 163.23 331.842C165.453 316.252 168.641 305.856 172.446 298.913C176.206 292.051 180.554 288.58 185.252 286.741C190.072 284.853 195.475 284.591 201.591 284.591C207.706 284.591 213.109 284.853 217.93 286.741C222.628 288.58 226.976 292.051 230.736 298.913C234.54 305.856 237.728 316.252 239.951 331.842C242.171 347.408 243.409 368.003 243.409 395.245Z" stroke="#24744D" stroke-width="5"/>
</svg>
